<svg id="visual" viewBox="0 0 900 600" width="900" height="600" xmlns="http://www.w3.org/2000/svg" xmlns:xlink="http://www.w3.org/1999/xlink" version="1.1"><rect x="0" y="0" width="900" height="600" fill="#001220"></rect><path d="M0 316L21.5 332.7C43 349.3 86 382.7 128.8 364.7C171.7 346.7 214.3 277.3 257.2 265C300 252.7 343 297.3 385.8 301.8C428.7 306.3 471.3 270.7 514.2 255.8C557 241 600 247 642.8 263.2C685.7 279.3 728.3 305.7 771.2 300.7C814 295.7 857 259.3 878.5 241.2L900 223L900 601L878.5 601C857 601 814 601 771.2 601C728.3 601 685.7 601 642.8 601C600 601 557 601 514.2 601C471.3 601 428.7 601 385.8 601C343 601 300 601 257.2 601C214.3 601 171.7 601 128.8 601C86 601 43 601 21.5 601L0 601Z" fill="#715df2"></path><path d="M0 332L21.5 332.8C43 333.7 86 335.3 128.8 346.2C171.7 357 214.3 377 257.2 402.5C300 428 343 459 385.8 462C428.7 465 471.3 440 514.2 431C557 422 600 429 642.8 429C685.7 429 728.3 422 771.2 430.8C814 439.7 857 464.3 878.5 476.7L900 489L900 601L878.5 601C857 601 814 601 771.2 601C728.3 601 685.7 601 642.8 601C600 601 557 601 514.2 601C471.3 601 428.7 601 385.8 601C343 601 300 601 257.2 601C214.3 601 171.7 601 128.8 601C86 601 43 601 21.5 601L0 601Z" fill="#6449da"></path><path d="M0 367L21.5 380.2C43 393.3 86 419.7 128.8 428.7C171.7 437.7 214.3 429.3 257.2 423.3C300 417.3 343 413.7 385.8 409.3C428.7 405 471.3 400 514.2 403.7C557 407.3 600 419.7 642.8 420.7C685.7 421.7 728.3 411.3 771.2 417.2C814 423 857 445 878.5 456L900 467L900 601L878.5 601C857 601 814 601 771.2 601C728.3 601 685.7 601 642.8 601C600 601 557 601 514.2 601C471.3 601 428.7 601 385.8 601C343 601 300 601 257.2 601C214.3 601 171.7 601 128.8 601C86 601 43 601 21.5 601L0 601Z" fill="#5734c2"></path><path d="M0 479L21.5 488.5C43 498 86 517 128.8 531.2C171.7 545.3 214.3 554.7 257.2 547.8C300 541 343 518 385.8 502C428.7 486 471.3 477 514.2 476C557 475 600 482 642.8 493.3C685.7 504.7 728.3 520.3 771.2 507.2C814 494 857 452 878.5 431L900 410L900 601L878.5 601C857 601 814 601 771.2 601C728.3 601 685.7 601 642.8 601C600 601 557 601 514.2 601C471.3 601 428.7 601 385.8 601C343 601 300 601 257.2 601C214.3 601 171.7 601 128.8 601C86 601 43 601 21.5 601L0 601Z" fill="#491eaa"></path><path d="M0 516L21.5 514.2C43 512.3 86 508.7 128.8 499.8C171.7 491 214.3 477 257.2 491C300 505 343 547 385.8 547.2C428.7 547.3 471.3 505.7 514.2 487.5C557 469.3 600 474.7 642.8 490.5C685.7 506.3 728.3 532.7 771.2 540.5C814 548.3 857 537.7 878.5 532.3L900 527L900 601L878.5 601C857 601 814 601 771.2 601C728.3 601 685.7 601 642.8 601C600 601 557 601 514.2 601C471.3 601 428.7 601 385.8 601C343 601 300 601 257.2 601C214.3 601 171.7 601 128.8 601C86 601 43 601 21.5 601L0 601Z" fill="#3b0093"></path></svg>