<svg id="visual" viewBox="0 0 900 600" width="900" height="600" xmlns="http://www.w3.org/2000/svg" xmlns:xlink="http://www.w3.org/1999/xlink" version="1.1"><path d="M0 31L18.8 36C37.7 41 75.3 51 112.8 54C150.3 57 187.7 53 225.2 47C262.7 41 300.3 33 337.8 34C375.3 35 412.7 45 450.2 51C487.7 57 525.3 59 562.8 59C600.3 59 637.7 57 675.2 56C712.7 55 750.3 55 787.8 60C825.3 65 862.7 75 881.3 80L900 85L900 0L881.3 0C862.7 0 825.3 0 787.8 0C750.3 0 712.7 0 675.2 0C637.7 0 600.3 0 562.8 0C525.3 0 487.7 0 450.2 0C412.7 0 375.3 0 337.8 0C300.3 0 262.7 0 225.2 0C187.7 0 150.3 0 112.8 0C75.3 0 37.7 0 18.8 0L0 0Z" fill="#9269ff"></path><path d="M0 259L18.8 235C37.7 211 75.3 163 112.8 151C150.3 139 187.7 163 225.2 160C262.7 157 300.3 127 337.8 120C375.3 113 412.7 129 450.2 151C487.7 173 525.3 201 562.8 214C600.3 227 637.7 225 675.2 224C712.7 223 750.3 223 787.8 215C825.3 207 862.7 191 881.3 183L900 175L900 83L881.3 78C862.7 73 825.3 63 787.8 58C750.3 53 712.7 53 675.2 54C637.7 55 600.3 57 562.8 57C525.3 57 487.7 55 450.2 49C412.7 43 375.3 33 337.8 32C300.3 31 262.7 39 225.2 45C187.7 51 150.3 55 112.8 52C75.3 49 37.7 39 18.8 34L0 29Z" fill="#7c4cff"></path><path d="M0 349L18.8 352C37.7 355 75.3 361 112.8 363C150.3 365 187.7 363 225.2 358C262.7 353 300.3 345 337.8 352C375.3 359 412.7 381 450.2 384C487.7 387 525.3 371 562.8 357C600.3 343 637.7 331 675.2 343C712.7 355 750.3 391 787.8 398C825.3 405 862.7 383 881.3 372L900 361L900 173L881.3 181C862.7 189 825.3 205 787.8 213C750.3 221 712.7 221 675.2 222C637.7 223 600.3 225 562.8 212C525.3 199 487.7 171 450.2 149C412.7 127 375.3 111 337.8 118C300.3 125 262.7 155 225.2 158C187.7 161 150.3 137 112.8 149C75.3 161 37.7 209 18.8 233L0 257Z" fill="#6229ff"></path><path d="M0 385L18.8 393C37.7 401 75.3 417 112.8 425C150.3 433 187.7 433 225.2 434C262.7 435 300.3 437 337.8 442C375.3 447 412.7 455 450.2 448C487.7 441 525.3 419 562.8 405C600.3 391 637.7 385 675.2 394C712.7 403 750.3 427 787.8 438C825.3 449 862.7 447 881.3 446L900 445L900 359L881.3 370C862.7 381 825.3 403 787.8 396C750.3 389 712.7 353 675.2 341C637.7 329 600.3 341 562.8 355C525.3 369 487.7 385 450.2 382C412.7 379 375.3 357 337.8 350C300.3 343 262.7 351 225.2 356C187.7 361 150.3 363 112.8 361C75.3 359 37.7 353 18.8 350L0 347Z" fill="#4e0bf1"></path><path d="M0 427L18.8 441C37.7 455 75.3 483 112.8 496C150.3 509 187.7 507 225.2 510C262.7 513 300.3 521 337.8 529C375.3 537 412.7 545 450.2 526C487.7 507 525.3 461 562.8 446C600.3 431 637.7 447 675.2 464C712.7 481 750.3 499 787.8 509C825.3 519 862.7 521 881.3 522L900 523L900 443L881.3 444C862.7 445 825.3 447 787.8 436C750.3 425 712.7 401 675.2 392C637.7 383 600.3 389 562.8 403C525.3 417 487.7 439 450.2 446C412.7 453 375.3 445 337.8 440C300.3 435 262.7 433 225.2 432C187.7 431 150.3 431 112.8 423C75.3 415 37.7 399 18.8 391L0 383Z" fill="#450ad6"></path><path d="M0 601L18.8 601C37.7 601 75.3 601 112.8 601C150.3 601 187.7 601 225.2 601C262.7 601 300.3 601 337.8 601C375.3 601 412.7 601 450.2 601C487.7 601 525.3 601 562.8 601C600.3 601 637.7 601 675.2 601C712.7 601 750.3 601 787.8 601C825.3 601 862.7 601 881.3 601L900 601L900 521L881.3 520C862.7 519 825.3 517 787.8 507C750.3 497 712.7 479 675.2 462C637.7 445 600.3 429 562.8 444C525.3 459 487.7 505 450.2 524C412.7 543 375.3 535 337.8 527C300.3 519 262.7 511 225.2 508C187.7 505 150.3 507 112.8 494C75.3 481 37.7 453 18.8 439L0 425Z" fill="#3c09bc"></path></svg>