<svg id="visual" viewBox="0 0 900 600" width="900" height="600" xmlns="http://www.w3.org/2000/svg" xmlns:xlink="http://www.w3.org/1999/xlink" version="1.1"><rect x="0" y="0" width="900" height="600" fill="#001220"></rect><defs><linearGradient id="grad1_0" x1="33.3%" y1="0%" x2="100%" y2="100%"><stop offset="20%" stop-color="#715df2" stop-opacity="1"></stop><stop offset="80%" stop-color="#715df2" stop-opacity="1"></stop></linearGradient></defs><defs><linearGradient id="grad1_1" x1="33.3%" y1="0%" x2="100%" y2="100%"><stop offset="20%" stop-color="#715df2" stop-opacity="1"></stop><stop offset="80%" stop-color="#4757d6" stop-opacity="1"></stop></linearGradient></defs><defs><linearGradient id="grad1_2" x1="33.3%" y1="0%" x2="100%" y2="100%"><stop offset="20%" stop-color="#194fb8" stop-opacity="1"></stop><stop offset="80%" stop-color="#4757d6" stop-opacity="1"></stop></linearGradient></defs><defs><linearGradient id="grad1_3" x1="33.3%" y1="0%" x2="100%" y2="100%"><stop offset="20%" stop-color="#194fb8" stop-opacity="1"></stop><stop offset="80%" stop-color="#004599" stop-opacity="1"></stop></linearGradient></defs><defs><linearGradient id="grad1_4" x1="33.3%" y1="0%" x2="100%" y2="100%"><stop offset="20%" stop-color="#00397a" stop-opacity="1"></stop><stop offset="80%" stop-color="#004599" stop-opacity="1"></stop></linearGradient></defs><defs><linearGradient id="grad1_5" x1="33.3%" y1="0%" x2="100%" y2="100%"><stop offset="20%" stop-color="#00397a" stop-opacity="1"></stop><stop offset="80%" stop-color="#002d5a" stop-opacity="1"></stop></linearGradient></defs><defs><linearGradient id="grad1_6" x1="33.3%" y1="0%" x2="100%" y2="100%"><stop offset="20%" stop-color="#00203c" stop-opacity="1"></stop><stop offset="80%" stop-color="#002d5a" stop-opacity="1"></stop></linearGradient></defs><defs><linearGradient id="grad1_7" x1="33.3%" y1="0%" x2="100%" y2="100%"><stop offset="20%" stop-color="#00203c" stop-opacity="1"></stop><stop offset="80%" stop-color="#001220" stop-opacity="1"></stop></linearGradient></defs><defs><linearGradient id="grad2_0" x1="0%" y1="0%" x2="66.7%" y2="100%"><stop offset="20%" stop-color="#715df2" stop-opacity="1"></stop><stop offset="80%" stop-color="#715df2" stop-opacity="1"></stop></linearGradient></defs><defs><linearGradient id="grad2_1" x1="0%" y1="0%" x2="66.7%" y2="100%"><stop offset="20%" stop-color="#4757d6" stop-opacity="1"></stop><stop offset="80%" stop-color="#715df2" stop-opacity="1"></stop></linearGradient></defs><defs><linearGradient id="grad2_2" x1="0%" y1="0%" x2="66.7%" y2="100%"><stop offset="20%" stop-color="#4757d6" stop-opacity="1"></stop><stop offset="80%" stop-color="#194fb8" stop-opacity="1"></stop></linearGradient></defs><defs><linearGradient id="grad2_3" x1="0%" y1="0%" x2="66.7%" y2="100%"><stop offset="20%" stop-color="#004599" stop-opacity="1"></stop><stop offset="80%" stop-color="#194fb8" stop-opacity="1"></stop></linearGradient></defs><defs><linearGradient id="grad2_4" x1="0%" y1="0%" x2="66.7%" y2="100%"><stop offset="20%" stop-color="#004599" stop-opacity="1"></stop><stop offset="80%" stop-color="#00397a" stop-opacity="1"></stop></linearGradient></defs><defs><linearGradient id="grad2_5" x1="0%" y1="0%" x2="66.7%" y2="100%"><stop offset="20%" stop-color="#002d5a" stop-opacity="1"></stop><stop offset="80%" stop-color="#00397a" stop-opacity="1"></stop></linearGradient></defs><defs><linearGradient id="grad2_6" x1="0%" y1="0%" x2="66.7%" y2="100%"><stop offset="20%" stop-color="#002d5a" stop-opacity="1"></stop><stop offset="80%" stop-color="#00203c" stop-opacity="1"></stop></linearGradient></defs><defs><linearGradient id="grad2_7" x1="0%" y1="0%" x2="66.7%" y2="100%"><stop offset="20%" stop-color="#001220" stop-opacity="1"></stop><stop offset="80%" stop-color="#00203c" stop-opacity="1"></stop></linearGradient></defs><g transform="translate(900, 0)"><path d="M0 486.7C-57.6 452.5 -115.3 418.2 -158.8 383.4C-202.4 348.6 -231.8 313.3 -284.3 284.3C-336.7 255.3 -412.1 232.6 -449.7 186.3C-487.3 140 -487 70 -486.7 0L0 0Z" fill="#00192e"></path><path d="M0 425.9C-50.4 395.9 -100.9 365.9 -139 335.5C-177.1 305 -202.8 274.1 -248.7 248.7C-294.6 223.3 -360.6 203.5 -393.5 163C-426.4 122.5 -426.1 61.2 -425.9 0L0 0Z" fill="#00264b"></path><path d="M0 365.1C-43.2 339.4 -86.5 313.7 -119.1 287.6C-151.8 261.5 -173.9 234.9 -213.2 213.2C-252.5 191.4 -309.1 174.4 -337.3 139.7C-365.5 105 -365.3 52.5 -365.1 0L0 0Z" fill="#00336a"></path><path d="M0 304.2C-36 282.8 -72 261.4 -99.3 239.6C-126.5 217.9 -144.9 195.8 -177.7 177.7C-210.4 159.5 -257.6 145.4 -281.1 116.4C-304.5 87.5 -304.4 43.7 -304.2 0L0 0Z" fill="#003f8a"></path><path d="M0 243.4C-28.8 226.2 -57.6 209.1 -79.4 191.7C-101.2 174.3 -115.9 156.6 -142.1 142.1C-168.3 127.6 -206.1 116.3 -224.8 93.1C-243.6 70 -243.5 35 -243.4 0L0 0Z" fill="#004aa9"></path><path d="M0 182.5C-21.6 169.7 -43.2 156.8 -59.6 143.8C-75.9 130.7 -86.9 117.5 -106.6 106.6C-126.3 95.7 -154.5 87.2 -168.6 69.9C-182.7 52.5 -182.6 26.2 -182.5 0L0 0Z" fill="#3153c8"></path><path d="M0 121.7C-14.4 113.1 -28.8 104.6 -39.7 95.9C-50.6 87.2 -58 78.3 -71.1 71.1C-84.2 63.8 -103 58.1 -112.4 46.6C-121.8 35 -121.8 17.5 -121.7 0L0 0Z" fill="#5c5ae4"></path><path d="M0 60.8C-7.2 56.6 -14.4 52.3 -19.9 47.9C-25.3 43.6 -29 39.2 -35.5 35.5C-42.1 31.9 -51.5 29.1 -56.2 23.3C-60.9 17.5 -60.9 8.7 -60.8 0L0 0Z" fill="#715df2"></path></g><g transform="translate(0, 600)"><path d="M0 -486.7C49.5 -440 99 -393.3 153.1 -369.6C207.1 -345.8 265.7 -345.2 319.6 -319.6C373.5 -294.1 422.6 -243.7 449.7 -186.3C476.8 -128.9 481.8 -64.4 486.7 0L0 0Z" fill="#00192e"></path><path d="M0 -425.9C43.3 -385 86.6 -344.1 133.9 -323.4C181.2 -302.6 232.5 -302 279.7 -279.7C326.8 -257.3 369.8 -213.2 393.5 -163C417.2 -112.8 421.5 -56.4 425.9 0L0 0Z" fill="#00264b"></path><path d="M0 -365.1C37.1 -330 74.3 -294.9 114.8 -277.2C155.3 -259.4 199.3 -258.9 239.7 -239.7C280.1 -220.6 317 -182.8 337.3 -139.7C357.6 -96.6 361.3 -48.3 365.1 0L0 0Z" fill="#00336a"></path><path d="M0 -304.2C30.9 -275 61.9 -245.8 95.7 -231C129.5 -216.1 166.1 -215.7 199.8 -199.8C233.4 -183.8 264.1 -152.3 281.1 -116.4C298 -80.5 301.1 -40.3 304.2 0L0 0Z" fill="#003f8a"></path><path d="M0 -243.4C24.8 -220 49.5 -196.6 76.5 -184.8C103.6 -172.9 132.9 -172.6 159.8 -159.8C186.7 -147 211.3 -121.8 224.8 -93.1C238.4 -64.4 240.9 -32.2 243.4 0L0 0Z" fill="#004aa9"></path><path d="M0 -182.5C18.6 -165 37.1 -147.5 57.4 -138.6C77.7 -129.7 99.7 -129.4 119.9 -119.9C140.1 -110.3 158.5 -91.4 168.6 -69.9C178.8 -48.3 180.7 -24.2 182.5 0L0 0Z" fill="#3153c8"></path><path d="M0 -121.7C12.4 -110 24.8 -98.3 38.3 -92.4C51.8 -86.5 66.4 -86.3 79.9 -79.9C93.4 -73.5 105.7 -60.9 112.4 -46.6C119.2 -32.2 120.4 -16.1 121.7 0L0 0Z" fill="#5c5ae4"></path><path d="M0 -60.8C6.2 -55 12.4 -49.2 19.1 -46.2C25.9 -43.2 33.2 -43.1 40 -40C46.7 -36.8 52.8 -30.5 56.2 -23.3C59.6 -16.1 60.2 -8.1 60.8 0L0 0Z" fill="#715df2"></path></g></svg>