<svg id="visual" viewBox="0 0 900 600" width="900" height="600" xmlns="http://www.w3.org/2000/svg" xmlns:xlink="http://www.w3.org/1999/xlink" version="1.1"><rect x="0" y="0" width="900" height="600" fill="#c4c4c4"></rect><defs><linearGradient id="grad1_0" x1="33.3%" y1="0%" x2="100%" y2="100%"><stop offset="20%" stop-color="#3c09bc" stop-opacity="1"></stop><stop offset="80%" stop-color="#3c09bc" stop-opacity="1"></stop></linearGradient></defs><defs><linearGradient id="grad1_1" x1="33.3%" y1="0%" x2="100%" y2="100%"><stop offset="20%" stop-color="#3c09bc" stop-opacity="1"></stop><stop offset="80%" stop-color="#8f6dc2" stop-opacity="1"></stop></linearGradient></defs><defs><linearGradient id="grad1_2" x1="33.3%" y1="0%" x2="100%" y2="100%"><stop offset="20%" stop-color="#c4c4c4" stop-opacity="1"></stop><stop offset="80%" stop-color="#8f6dc2" stop-opacity="1"></stop></linearGradient></defs><defs><linearGradient id="grad2_0" x1="0%" y1="0%" x2="66.7%" y2="100%"><stop offset="20%" stop-color="#3c09bc" stop-opacity="1"></stop><stop offset="80%" stop-color="#3c09bc" stop-opacity="1"></stop></linearGradient></defs><defs><linearGradient id="grad2_1" x1="0%" y1="0%" x2="66.7%" y2="100%"><stop offset="20%" stop-color="#8f6dc2" stop-opacity="1"></stop><stop offset="80%" stop-color="#3c09bc" stop-opacity="1"></stop></linearGradient></defs><defs><linearGradient id="grad2_2" x1="0%" y1="0%" x2="66.7%" y2="100%"><stop offset="20%" stop-color="#8f6dc2" stop-opacity="1"></stop><stop offset="80%" stop-color="#c4c4c4" stop-opacity="1"></stop></linearGradient></defs><g transform="translate(900, 0)"><path d="M0 351.5C-23.2 357 -46.4 362.5 -60.3 341.7C-74.1 320.9 -78.6 273.8 -96.8 265.9C-115 258 -147 289.3 -171 296.2C-195 303.1 -211.1 285.5 -226 269.3C-240.8 253.1 -254.5 238.1 -262 219.8C-269.5 201.5 -270.8 179.8 -280.6 162C-290.4 144.2 -308.8 130.2 -306.3 111.5C-303.9 92.8 -280.6 69.5 -284.6 50.2C-288.7 30.8 -320.1 15.4 -351.5 0L0 0Z" fill="#ab98c4"></path><path d="M0 234.4C-15.5 238 -30.9 241.7 -40.2 227.8C-49.4 214 -52.4 182.6 -64.5 177.3C-76.7 172 -98 192.9 -114 197.5C-130 202 -140.7 190.4 -150.6 179.5C-160.6 168.7 -169.7 158.8 -174.7 146.6C-179.6 134.4 -180.5 119.9 -187.1 108C-193.6 96.1 -205.9 86.8 -204.2 74.3C-202.6 61.9 -187 46.4 -189.7 33.5C-192.4 20.6 -213.4 10.3 -234.4 0L0 0Z" fill="#6d42c0"></path><path d="M0 117.2C-7.7 119 -15.5 120.8 -20.1 113.9C-24.7 107 -26.2 91.3 -32.3 88.6C-38.3 86 -49 96.4 -57 98.7C-65 101 -70.4 95.2 -75.3 89.8C-80.3 84.4 -84.8 79.4 -87.3 73.3C-89.8 67.2 -90.3 59.9 -93.5 54C-96.8 48.1 -102.9 43.4 -102.1 37.2C-101.3 30.9 -93.5 23.2 -94.9 16.7C-96.2 10.3 -106.7 5.1 -117.2 0L0 0Z" fill="#3c09bc"></path></g><g transform="translate(0, 600)"><path d="M0 -351.5C19 -342.2 38 -332.8 58.3 -330.9C78.7 -329 100.5 -334.6 120.2 -330.3C140 -326 157.8 -311.8 168.5 -291.9C179.2 -271.9 182.8 -246.3 194.1 -231.3C205.5 -216.4 224.6 -212.2 241.3 -202.5C258 -192.7 272.3 -177.4 274.5 -158.5C276.7 -139.6 266.8 -117.3 278.1 -101.2C289.5 -85.2 322 -75.4 337.8 -59.6C353.6 -43.7 352.6 -21.9 351.5 0L0 0Z" fill="#ab98c4"></path><path d="M0 -234.4C12.7 -228.1 25.3 -221.8 38.9 -220.6C52.5 -219.3 67 -223.1 80.2 -220.2C93.3 -217.4 105.2 -207.9 112.3 -194.6C119.5 -181.3 121.8 -164.2 129.4 -154.2C137 -144.3 149.7 -141.5 160.9 -135C172 -128.5 181.6 -118.2 183 -105.7C184.5 -93.1 177.9 -78.2 185.4 -67.5C193 -56.8 214.7 -50.3 225.2 -39.7C235.7 -29.2 235 -14.6 234.4 0L0 0Z" fill="#6d42c0"></path><path d="M0 -117.2C6.3 -114.1 12.7 -110.9 19.4 -110.3C26.2 -109.7 33.5 -111.5 40.1 -110.1C46.7 -108.7 52.6 -103.9 56.2 -97.3C59.7 -90.6 60.9 -82.1 64.7 -77.1C68.5 -72.1 74.9 -70.7 80.4 -67.5C86 -64.2 90.8 -59.1 91.5 -52.8C92.2 -46.5 88.9 -39.1 92.7 -33.7C96.5 -28.4 107.3 -25.1 112.6 -19.9C117.9 -14.6 117.5 -7.3 117.2 0L0 0Z" fill="#3c09bc"></path></g></svg>