<svg id="visual" viewBox="0 0 900 600" width="900" height="600" xmlns="http://www.w3.org/2000/svg" xmlns:xlink="http://www.w3.org/1999/xlink" version="1.1"><rect x="0" y="0" width="900" height="600" fill="#ffffff"></rect><defs><linearGradient id="grad1_0" x1="33.3%" y1="0%" x2="100%" y2="100%"><stop offset="20%" stop-color="#3c09bc" stop-opacity="1"></stop><stop offset="80%" stop-color="#3c09bc" stop-opacity="1"></stop></linearGradient></defs><defs><linearGradient id="grad1_1" x1="33.3%" y1="0%" x2="100%" y2="100%"><stop offset="20%" stop-color="#3c09bc" stop-opacity="1"></stop><stop offset="80%" stop-color="#7c4ece" stop-opacity="1"></stop></linearGradient></defs><defs><linearGradient id="grad1_2" x1="33.3%" y1="0%" x2="100%" y2="100%"><stop offset="20%" stop-color="#ac88e0" stop-opacity="1"></stop><stop offset="80%" stop-color="#7c4ece" stop-opacity="1"></stop></linearGradient></defs><defs><linearGradient id="grad1_3" x1="33.3%" y1="0%" x2="100%" y2="100%"><stop offset="20%" stop-color="#ac88e0" stop-opacity="1"></stop><stop offset="80%" stop-color="#d7c2f0" stop-opacity="1"></stop></linearGradient></defs><defs><linearGradient id="grad1_4" x1="33.3%" y1="0%" x2="100%" y2="100%"><stop offset="20%" stop-color="#ffffff" stop-opacity="1"></stop><stop offset="80%" stop-color="#d7c2f0" stop-opacity="1"></stop></linearGradient></defs><defs><linearGradient id="grad2_0" x1="0%" y1="0%" x2="66.7%" y2="100%"><stop offset="20%" stop-color="#3c09bc" stop-opacity="1"></stop><stop offset="80%" stop-color="#3c09bc" stop-opacity="1"></stop></linearGradient></defs><defs><linearGradient id="grad2_1" x1="0%" y1="0%" x2="66.7%" y2="100%"><stop offset="20%" stop-color="#7c4ece" stop-opacity="1"></stop><stop offset="80%" stop-color="#3c09bc" stop-opacity="1"></stop></linearGradient></defs><defs><linearGradient id="grad2_2" x1="0%" y1="0%" x2="66.7%" y2="100%"><stop offset="20%" stop-color="#7c4ece" stop-opacity="1"></stop><stop offset="80%" stop-color="#ac88e0" stop-opacity="1"></stop></linearGradient></defs><defs><linearGradient id="grad2_3" x1="0%" y1="0%" x2="66.7%" y2="100%"><stop offset="20%" stop-color="#d7c2f0" stop-opacity="1"></stop><stop offset="80%" stop-color="#ac88e0" stop-opacity="1"></stop></linearGradient></defs><defs><linearGradient id="grad2_4" x1="0%" y1="0%" x2="66.7%" y2="100%"><stop offset="20%" stop-color="#d7c2f0" stop-opacity="1"></stop><stop offset="80%" stop-color="#ffffff" stop-opacity="1"></stop></linearGradient></defs><g transform="translate(900, 0)"><path d="M0 432.7C-25.1 431.5 -50.2 430.4 -75.1 426.1C-100 421.8 -124.7 414.4 -146.4 402.2C-168.1 390 -186.7 372.9 -207.5 359.4C-228.3 345.9 -251.2 336 -268 319.4C-284.9 302.8 -295.8 279.5 -310.2 260.3C-324.7 241.1 -342.6 226 -360.3 208C-378 190 -395.5 169.2 -399.4 145.4C-403.3 121.5 -393.6 94.7 -396.9 70C-400.2 45.3 -416.4 22.6 -432.7 0L0 0Z" fill="#ebe0f8"></path><path d="M0 346.1C-20.1 345.2 -40.2 344.3 -60.1 340.9C-80 337.5 -99.8 331.5 -117.1 321.8C-134.4 312 -149.4 298.3 -166 287.5C-182.6 276.7 -200.9 268.8 -214.4 255.6C-227.9 242.3 -236.7 223.6 -248.2 208.3C-259.7 192.9 -274.1 180.8 -288.2 166.4C-302.4 152 -316.4 135.3 -319.5 116.3C-322.6 97.2 -314.9 75.8 -317.5 56C-320.1 36.2 -333.1 18.1 -346.1 0L0 0Z" fill="#c2a5e8"></path><path d="M0 259.6C-15.1 258.9 -30.1 258.2 -45.1 255.7C-60 253.1 -74.8 248.7 -87.8 241.3C-100.8 234 -112 223.7 -124.5 215.6C-137 207.6 -150.7 201.6 -160.8 191.7C-171 181.7 -177.5 167.7 -186.1 156.2C-194.8 144.7 -205.5 135.6 -216.2 124.8C-226.8 114 -237.3 101.5 -239.6 87.2C-242 72.9 -236.2 56.8 -238.1 42C-240.1 27.2 -249.8 13.6 -259.6 0L0 0Z" fill="#956bd7"></path><path d="M0 173.1C-10 172.6 -20.1 172.1 -30.1 170.4C-40 168.7 -49.9 165.8 -58.6 160.9C-67.2 156 -74.7 149.2 -83 143.8C-91.3 138.4 -100.5 134.4 -107.2 127.8C-114 121.1 -118.3 111.8 -124.1 104.1C-129.9 96.4 -137 90.4 -144.1 83.2C-151.2 76 -158.2 67.7 -159.7 58.1C-161.3 48.6 -157.4 37.9 -158.8 28C-160.1 18.1 -166.6 9.1 -173.1 0L0 0Z" fill="#6031c5"></path><path d="M0 86.5C-5 86.3 -10 86.1 -15 85.2C-20 84.4 -24.9 82.9 -29.3 80.4C-33.6 78 -37.3 74.6 -41.5 71.9C-45.7 69.2 -50.2 67.2 -53.6 63.9C-57 60.6 -59.2 55.9 -62 52.1C-64.9 48.2 -68.5 45.2 -72.1 41.6C-75.6 38 -79.1 33.8 -79.9 29.1C-80.7 24.3 -78.7 18.9 -79.4 14C-80 9.1 -83.3 4.5 -86.5 0L0 0Z" fill="#3c09bc"></path></g><g transform="translate(0, 600)"><path d="M0 -432.7C25.5 -432.5 51.1 -432.3 75.1 -426.1C99.2 -419.9 121.7 -407.6 144.3 -396.6C167 -385.5 189.8 -375.6 207 -358.5C224.2 -341.5 235.9 -317.3 250.7 -298.8C265.5 -280.2 283.5 -267.3 301.1 -252.6C318.6 -237.9 335.7 -221.4 349 -201.5C362.3 -181.6 371.9 -158.5 370.2 -134.8C368.6 -111 355.8 -86.8 364.4 -64.2C372.9 -41.7 402.8 -20.9 432.7 0L0 0Z" fill="#ebe0f8"></path><path d="M0 -346.1C20.4 -346 40.9 -345.8 60.1 -340.9C79.3 -335.9 97.3 -326.1 115.5 -317.2C133.6 -308.4 151.8 -300.5 165.6 -286.8C179.4 -273.2 188.7 -253.8 200.5 -239C212.4 -224.2 226.8 -213.9 240.8 -202.1C254.9 -190.3 268.6 -177.1 279.2 -161.2C289.9 -145.3 297.5 -126.8 296.2 -107.8C294.9 -88.8 284.7 -69.4 291.5 -51.4C298.3 -33.4 322.2 -16.7 346.1 0L0 0Z" fill="#c2a5e8"></path><path d="M0 -259.6C15.3 -259.5 30.7 -259.4 45.1 -255.7C59.5 -251.9 73 -244.6 86.6 -237.9C100.2 -231.3 113.9 -225.3 124.2 -215.1C134.5 -204.9 141.5 -190.4 150.4 -179.3C159.3 -168.1 170.1 -160.4 180.6 -151.6C191.2 -142.7 201.4 -132.8 209.4 -120.9C217.4 -109 223.1 -95.1 222.1 -80.9C221.2 -66.6 213.5 -52.1 218.6 -38.5C223.8 -25 241.7 -12.5 259.6 0L0 0Z" fill="#956bd7"></path><path d="M0 -173.1C10.2 -173 20.4 -172.9 30.1 -170.4C39.7 -168 48.7 -163 57.7 -158.6C66.8 -154.2 75.9 -150.2 82.8 -143.4C89.7 -136.6 94.3 -126.9 100.3 -119.5C106.2 -112.1 113.4 -106.9 120.4 -101C127.4 -95.2 134.3 -88.5 139.6 -80.6C144.9 -72.7 148.7 -63.4 148.1 -53.9C147.4 -44.4 142.3 -34.7 145.8 -25.7C149.2 -16.7 161.1 -8.3 173.1 0L0 0Z" fill="#6031c5"></path><path d="M0 -86.5C5.1 -86.5 10.2 -86.5 15 -85.2C19.8 -84 24.3 -81.5 28.9 -79.3C33.4 -77.1 38 -75.1 41.4 -71.7C44.8 -68.3 47.2 -63.5 50.1 -59.8C53.1 -56 56.7 -53.5 60.2 -50.5C63.7 -47.6 67.1 -44.3 69.8 -40.3C72.5 -36.3 74.4 -31.7 74 -27C73.7 -22.2 71.2 -17.4 72.9 -12.8C74.6 -8.3 80.6 -4.2 86.5 0L0 0Z" fill="#3c09bc"></path></g></svg>