<svg id="visual" viewBox="0 0 900 600" width="900" height="600" xmlns="http://www.w3.org/2000/svg" xmlns:xlink="http://www.w3.org/1999/xlink" version="1.1"><rect x="0" y="0" width="900" height="600" fill="#001220"></rect><defs><linearGradient id="grad1_0" x1="33.3%" y1="0%" x2="100%" y2="100%"><stop offset="20%" stop-color="#6031c5" stop-opacity="1"></stop><stop offset="80%" stop-color="#6031c5" stop-opacity="1"></stop></linearGradient></defs><defs><linearGradient id="grad1_1" x1="33.3%" y1="0%" x2="100%" y2="100%"><stop offset="20%" stop-color="#6031c5" stop-opacity="1"></stop><stop offset="80%" stop-color="#003595" stop-opacity="1"></stop></linearGradient></defs><defs><linearGradient id="grad1_2" x1="33.3%" y1="0%" x2="100%" y2="100%"><stop offset="20%" stop-color="#00275a" stop-opacity="1"></stop><stop offset="80%" stop-color="#003595" stop-opacity="1"></stop></linearGradient></defs><defs><linearGradient id="grad1_3" x1="33.3%" y1="0%" x2="100%" y2="100%"><stop offset="20%" stop-color="#00275a" stop-opacity="1"></stop><stop offset="80%" stop-color="#001220" stop-opacity="1"></stop></linearGradient></defs><defs><linearGradient id="grad2_0" x1="0%" y1="0%" x2="66.7%" y2="100%"><stop offset="20%" stop-color="#6031c5" stop-opacity="1"></stop><stop offset="80%" stop-color="#6031c5" stop-opacity="1"></stop></linearGradient></defs><defs><linearGradient id="grad2_1" x1="0%" y1="0%" x2="66.7%" y2="100%"><stop offset="20%" stop-color="#003595" stop-opacity="1"></stop><stop offset="80%" stop-color="#6031c5" stop-opacity="1"></stop></linearGradient></defs><defs><linearGradient id="grad2_2" x1="0%" y1="0%" x2="66.7%" y2="100%"><stop offset="20%" stop-color="#003595" stop-opacity="1"></stop><stop offset="80%" stop-color="#00275a" stop-opacity="1"></stop></linearGradient></defs><defs><linearGradient id="grad2_3" x1="0%" y1="0%" x2="66.7%" y2="100%"><stop offset="20%" stop-color="#001220" stop-opacity="1"></stop><stop offset="80%" stop-color="#00275a" stop-opacity="1"></stop></linearGradient></defs><g transform="translate(900, 0)"><path d="M0 351.5C-28.6 342.3 -57.1 333.1 -87.7 327.4C-118.4 321.8 -151.1 319.6 -175.8 304.4C-200.5 289.3 -217.1 261.1 -238.3 238.3C-259.5 215.5 -285.2 197.9 -300.5 173.5C-315.8 149.1 -320.7 117.8 -327.4 87.7C-334.2 57.7 -342.9 28.8 -351.5 0L0 0Z" fill="#001d3c"></path><path d="M0 263.7C-21.4 256.8 -42.8 249.8 -65.8 245.6C-88.8 241.3 -113.3 239.7 -131.8 228.3C-150.3 217 -162.8 195.9 -178.7 178.7C-194.6 161.6 -213.9 148.4 -225.4 130.1C-236.9 111.8 -240.5 88.4 -245.6 65.8C-250.7 43.3 -257.2 21.6 -263.7 0L0 0Z" fill="#002f78"></path><path d="M0 175.8C-14.3 171.2 -28.6 166.6 -43.9 163.7C-59.2 160.9 -75.5 159.8 -87.9 152.2C-100.2 144.6 -108.6 130.6 -119.1 119.1C-129.7 107.7 -142.6 99 -150.3 86.8C-157.9 74.5 -160.3 58.9 -163.7 43.9C-167.1 28.8 -171.4 14.4 -175.8 0L0 0Z" fill="#3036af"></path><path d="M0 87.9C-7.1 85.6 -14.3 83.3 -21.9 81.9C-29.6 80.4 -37.8 79.9 -43.9 76.1C-50.1 72.3 -54.3 65.3 -59.6 59.6C-64.9 53.9 -71.3 49.5 -75.1 43.4C-79 37.3 -80.2 29.5 -81.9 21.9C-83.6 14.4 -85.7 7.2 -87.9 0L0 0Z" fill="#6031c5"></path></g><g transform="translate(0, 600)"><path d="M0 -351.5C29.3 -344.9 58.6 -338.3 89 -332.3C119.5 -326.2 151.1 -320.7 175.8 -304.4C200.4 -288.2 218.1 -261.2 237.6 -237.6C257.1 -214 278.5 -193.7 292.7 -169C306.9 -144.3 314 -115.3 322.6 -86.4C331.2 -57.6 341.4 -28.8 351.5 0L0 0Z" fill="#001d3c"></path><path d="M0 -263.7C22 -258.7 43.9 -253.8 66.8 -249.2C89.6 -244.7 113.3 -240.5 131.8 -228.3C150.3 -216.1 163.6 -195.9 178.2 -178.2C192.8 -160.5 208.9 -145.2 219.5 -126.8C230.2 -108.3 235.5 -86.5 242 -64.8C248.4 -43.2 256 -21.6 263.7 0L0 0Z" fill="#002f78"></path><path d="M0 -175.8C14.6 -172.5 29.3 -169.2 44.5 -166.1C59.7 -163.1 75.6 -160.3 87.9 -152.2C100.2 -144.1 109 -130.6 118.8 -118.8C128.6 -107 139.2 -96.8 146.4 -84.5C153.5 -72.2 157 -57.7 161.3 -43.2C165.6 -28.8 170.7 -14.4 175.8 0L0 0Z" fill="#3036af"></path><path d="M0 -87.9C7.3 -86.2 14.6 -84.6 22.3 -83.1C29.9 -81.6 37.8 -80.2 43.9 -76.1C50.1 -72 54.5 -65.3 59.4 -59.4C64.3 -53.5 69.6 -48.4 73.2 -42.3C76.7 -36.1 78.5 -28.8 80.7 -21.6C82.8 -14.4 85.3 -7.2 87.9 0L0 0Z" fill="#6031c5"></path></g></svg>